<?xml version="1.0" encoding="utf-8"?><!-- Uploaded to: SVG Repo, www.svgrepo.com, Generator: SVG Repo Mixer Tools -->
<svg width="800px" height="800px" viewBox="0 0 64 64" xmlns="http://www.w3.org/2000/svg"><path d="m58 25.72c-.38-.06-4.91 4.22-8.19 8a261.43 261.43 0 0 1 -18.53 18.44c-5.16 4.4-8.28 4.5-11.63 3.9s-7.43-3-10.43-7.72-2.22-10.21-1.47-12.56a28.69 28.69 0 0 1 7.12-11.06c3.91-3.56 17.19-16 17.31-16.34s-.76-1.49-1.18-1.22c-2.82 1.78-19.41 18.18-21.41 20.93a24.43 24.43 0 0 0 -4.44 12.63c-.25 5.22 2 9 5.35 12.75s8.28 4.53 12.18 4.59 9.16-4.06 13.07-7.87 22.93-23.06 23.09-23.19-.44-1.22-.84-1.28zm-30.1-2.72c.07.28.5 1 .88.94s18.28-16.53 18.34-16.78-.47-1.28-.94-1.22-18.4 16.49-18.28 17.06zm8.16 1.69c0 .22.56.93.91 1s18.5-16.75 18.59-17-.56-1.19-.94-1.13-18.52 16.79-18.56 17.1zm1.12 11.47c.19 0 15.66-14.75 15.88-15.13s-.69-1.28-.91-1.34-15.89 14.83-15.93 15.25.78 1.19.96 1.19zm-26.09-1.41c-.28.19-.59 1.56-.84 3.38s.4 6.21 4.4 10.06 12.16 4.19 12.57 4.09.34-1.31.21-1.5-.81-.34-1.84-.44-5.5-.5-10.53-4.93a9.19 9.19 0 0 1 -2.44-10.41c.1-.37-1.36-.37-1.53-.25zm25.44 9.31c.37-.53-2.91-8.25-3-8.47s3.66-5.84 3-6.53-8-.9-8.41-.93-5.09-5-5.81-4.5-1.91 7-2.06 7.37-5.64 4.67-5.91 5.09c-.65 1 .5 1.22 1.31 1.35s4.79.28 5 .4.81 5.75.93 7.38 1.2 1.41 1.42 1.28 4.78-3.87 5.09-4.12 8.06 2.21 8.44 1.68zm-8.88-3.43c-.56.15-3.84 3.53-4.09 3.34s-.75-6.63-1-7a1.63 1.63 0 0 0 -1.37-.69c-.66-.06-3.91-.28-4.07-.62s4.88-3.85 4.91-4 .81-5.71 1.28-5.75 3.97 4 4.59 4.09 6.82 0 6.69.38-2.75 4.87-2.84 5.28 2.37 6.37 2.18 6.5-5.71-1.69-6.28-1.53zm-4-12.32a23 23 0 0 0 -.62 4c.06.29.59.19.87.13s.57-3.69.57-4-.58-.44-.79-.13zm6.35 7.16c.09 0 .15-.5.12-.78s-1.57-.79-1.78-.69-.15.78-.06.94a7.41 7.41 0 0 0 1.72.53zm.5 2.28c.25-.09 0-.66-.28-.94a6.22 6.22 0 0 0 -2-.59c-.22 0-.22.81-.13.94a8.6 8.6 0 0 0 2.44.59zm-2.44.38c-.19 0-.09 1 .06 1.09a27.14 27.14 0 0 0 3 .87c.28 0 0-.65-.15-.84a12.18 12.18 0 0 0 -2.88-1.12z" fill="#1d1d1b"/></svg>