<svg xmlns="http://www.w3.org/2000/svg" xmlns:xlink="http://www.w3.org/1999/xlink" version="1.1" width="256" height="256" viewBox="0 0 256 256" xml:space="preserve">

<defs>
</defs>
<g style="stroke: none; stroke-width: 0; stroke-dasharray: none; stroke-linecap: butt; stroke-linejoin: miter; stroke-miterlimit: 10; fill: none; fill-rule: nonzero; opacity: 1;" transform="translate(1.4065934065934016 1.4065934065934016) scale(2.81 2.81)" >
	<path d="M 45 0 c 24.853 0 45 20.147 45 45 c 0 24.853 -20.147 45 -45 45 C 20.147 90 0 69.853 0 45 C 0 20.147 20.147 0 45 0 L 45 0 z" style="stroke: none; stroke-width: 1; stroke-dasharray: none; stroke-linecap: butt; stroke-linejoin: miter; stroke-miterlimit: 10; fill: rgb(208,99,151); fill-rule: evenodd; opacity: 1;" transform=" matrix(1 0 0 1 0 0) " stroke-linecap="round" />
	<path d="M 73.227 19.261 c -2.038 -7.992 -15.29 -10.619 -27.832 -6.164 c -7.464 2.652 -15.545 6.814 -21.354 12.248 c -6.908 6.461 -8.01 12.085 -7.556 14.435 c 1.602 8.292 12.963 13.712 17.633 17.733 v 0.024 c -1.377 0.678 -11.457 5.779 -13.816 10.994 c -2.489 5.502 0.396 9.45 2.306 9.981 c 5.918 1.647 11.992 -1.315 15.256 -6.183 c 3.15 -4.698 2.887 -10.765 1.519 -13.783 c 1.888 -0.498 4.089 -0.721 6.887 -0.395 c 7.894 0.922 9.443 5.851 9.146 7.914 c -0.296 2.063 -1.952 3.197 -2.505 3.539 c -0.554 0.343 -0.723 0.461 -0.676 0.716 c 0.067 0.37 0.323 0.356 0.795 0.276 c 0.65 -0.11 4.145 -1.678 4.294 -5.486 c 0.19 -4.834 -4.443 -10.242 -12.646 -10.101 c -3.378 0.058 -5.503 0.38 -7.037 0.951 c -0.113 -0.129 -0.229 -0.258 -0.348 -0.385 c -5.071 -5.411 -14.446 -9.238 -14.049 -16.512 c 0.145 -2.644 1.064 -9.608 18.014 -18.054 c 13.885 -6.919 25.001 -5.015 26.922 -0.795 c 2.744 6.028 -5.941 17.233 -20.361 18.849 c -5.494 0.616 -8.387 -1.513 -9.106 -2.306 c -0.758 -0.835 -0.87 -0.873 -1.153 -0.716 c -0.461 0.255 -0.169 0.992 0 1.432 c 0.431 1.12 2.197 3.107 5.209 4.096 c 2.65 0.87 9.1 1.347 16.901 -1.67 C 68.408 36.52 75.231 27.119 73.227 19.261 z M 36.057 59.99 c 0.655 2.422 0.583 4.68 -0.093 6.725 c -0.075 0.227 -0.158 0.452 -0.248 0.674 c -0.09 0.222 -0.187 0.441 -0.291 0.658 c -0.522 1.082 -1.221 2.095 -2.078 3.03 c -2.615 2.852 -6.268 3.931 -7.834 3.022 c -1.692 -0.981 -0.844 -5.002 2.187 -8.207 c 3.261 -3.447 7.953 -5.664 7.953 -5.664 l -0.007 -0.014 C 35.781 60.141 35.918 60.066 36.057 59.99 z" style="stroke: none; stroke-width: 1; stroke-dasharray: none; stroke-linecap: butt; stroke-linejoin: miter; stroke-miterlimit: 10; fill: rgb(255,255,255); fill-rule: nonzero; opacity: 1;" transform=" matrix(1 0 0 1 0 0) " stroke-linecap="round" />
</g>
</svg>